<svg width="114" height="54" viewBox="0 0 114 54" fill="none" xmlns="http://www.w3.org/2000/svg">
<mask id="mask0_418_25" style="mask-type:alpha" maskUnits="userSpaceOnUse" x="7" y="16" width="20" height="20">
<rect x="7" y="16" width="20" height="20" fill="#D9D9D9"/>
</mask>
<g mask="url(#mask0_418_25)">
<path d="M12.8333 26V18.5C12.8333 18.2639 12.9132 18.066 13.0729 17.9062C13.2326 17.7465 13.4306 17.6666 13.6667 17.6666C13.9028 17.6666 14.1007 17.7465 14.2604 17.9062C14.4201 18.066 14.5 18.2639 14.5 18.5V26H12.8333ZM16.1667 26V17.6666C16.1667 17.4305 16.2465 17.2326 16.4063 17.0729C16.566 16.9132 16.7639 16.8333 17 16.8333C17.2361 16.8333 17.434 16.9132 17.5938 17.0729C17.7535 17.2326 17.8333 17.4305 17.8333 17.6666V26H16.1667ZM19.5 29.3958V19.3333C19.5 19.0972 19.5799 18.8993 19.7396 18.7396C19.8993 18.5798 20.0972 18.5 20.3333 18.5C20.5694 18.5 20.7674 18.5798 20.9271 18.7396C21.0868 18.8993 21.1667 19.0972 21.1667 19.3333V28.4166L19.5 29.3958ZM12.8333 33.5H18.3958C18.5069 33.5 18.6111 33.4757 18.7083 33.4271C18.8056 33.3785 18.8958 33.3194 18.9792 33.25L22.7708 29.4583L16.7917 32.9375L14.0833 29.3333H11.1667V31.8333C11.1667 32.2916 11.3299 32.684 11.6563 33.0104C11.9826 33.3368 12.375 33.5 12.8333 33.5ZM12.8333 35.1666C11.9167 35.1666 11.1319 34.8403 10.4792 34.1875C9.82639 33.5347 9.5 32.75 9.5 31.8333V27.6666H14.9167L17.2083 30.7291L21.1667 28.4166L23.0417 27.3333C23.3333 27.1666 23.6424 27.0937 23.9688 27.1146C24.2951 27.1354 24.5972 27.243 24.875 27.4375L26.1875 28.4166L20.1667 34.4375C19.9306 34.6736 19.6597 34.8541 19.3542 34.9791C19.0486 35.1041 18.7292 35.1666 18.3958 35.1666H12.8333ZM11.1667 27.6666H9.5V20.1666C9.5 19.9305 9.57986 19.7326 9.73958 19.5729C9.89931 19.4132 10.0972 19.3333 10.3333 19.3333C10.5694 19.3333 10.7674 19.4132 10.9271 19.5729C11.0868 19.7326 11.1667 19.9305 11.1667 20.1666V27.6666ZM12.8333 33.5H11.1667H18.9792H12.8333Z" fill="#449A76"/>
</g>
<path d="M32.799 30V22.7273H35.3913C35.9571 22.7273 36.4259 22.8303 36.7976 23.0362C37.1693 23.2422 37.4474 23.5239 37.6321 23.8814C37.8168 24.2365 37.9091 24.6366 37.9091 25.0817C37.9091 25.5291 37.8156 25.9316 37.6286 26.2891C37.4439 26.6442 37.1645 26.9259 36.7905 27.1342C36.4188 27.3402 35.9512 27.4432 35.3878 27.4432H33.6051V26.5128H35.2884C35.6458 26.5128 35.9358 26.4512 36.1584 26.3281C36.3809 26.2027 36.5443 26.0322 36.6484 25.8168C36.7526 25.6013 36.8047 25.3563 36.8047 25.0817C36.8047 24.8071 36.7526 24.5632 36.6484 24.3501C36.5443 24.1371 36.3797 23.9702 36.1548 23.8494C35.9323 23.7287 35.6387 23.6683 35.2741 23.6683H33.8963V30H32.799ZM43.1976 25.8771L42.2353 26.0476C42.195 25.9245 42.1311 25.8073 42.0435 25.696C41.9583 25.5848 41.8423 25.4936 41.6955 25.4226C41.5487 25.3516 41.3652 25.3161 41.1451 25.3161C40.8444 25.3161 40.5935 25.3835 40.3922 25.5185C40.191 25.651 40.0904 25.8227 40.0904 26.0334C40.0904 26.2157 40.1578 26.3625 40.2928 26.4737C40.4277 26.585 40.6455 26.6761 40.9462 26.7472L41.8127 26.946C42.3146 27.062 42.6886 27.2408 42.9348 27.4822C43.181 27.7237 43.3042 28.0374 43.3042 28.4233C43.3042 28.75 43.2095 29.0412 43.0201 29.2969C42.833 29.5502 42.5714 29.7491 42.2353 29.8935C41.9015 30.0379 41.5144 30.1101 41.074 30.1101C40.4632 30.1101 39.9649 29.9799 39.579 29.7195C39.1931 29.4567 38.9564 29.0838 38.8688 28.6009L39.8951 28.4446C39.959 28.7121 40.0904 28.9145 40.2892 29.0518C40.4881 29.1868 40.7473 29.2543 41.0669 29.2543C41.415 29.2543 41.6931 29.1821 41.9015 29.0376C42.1098 28.8909 42.214 28.7121 42.214 28.5014C42.214 28.331 42.15 28.1877 42.0222 28.0717C41.8967 27.9557 41.7038 27.8681 41.4434 27.8089L40.5201 27.6065C40.0111 27.4905 39.6346 27.3059 39.3908 27.0526C39.1493 26.7992 39.0286 26.4785 39.0286 26.0902C39.0286 25.7682 39.1185 25.4865 39.2985 25.245C39.4784 25.0036 39.727 24.8153 40.0442 24.6804C40.3614 24.5431 40.7248 24.4744 41.1344 24.4744C41.7239 24.4744 42.1879 24.6023 42.5265 24.858C42.865 25.1113 43.0887 25.451 43.1976 25.8771ZM45.1428 32.0455C44.9841 32.0455 44.8397 32.0324 44.7095 32.0064C44.5793 31.9827 44.4822 31.9567 44.4183 31.9283L44.674 31.0582C44.8681 31.1103 45.041 31.1328 45.1925 31.1257C45.344 31.1186 45.4777 31.0618 45.5938 30.9553C45.7121 30.8487 45.8163 30.6747 45.9062 30.4332L46.0376 30.071L44.0419 24.5455H45.1783L46.5597 28.7784H46.6165L47.9979 24.5455H49.1378L46.8899 30.728C46.7857 31.0121 46.6532 31.2524 46.4922 31.4489C46.3312 31.6477 46.1394 31.7969 45.9169 31.8963C45.6944 31.9957 45.4363 32.0455 45.1428 32.0455ZM50.2209 30V22.7273H51.3182V25.8878H54.9439V22.7273H56.0447V30H54.9439V26.8288H51.3182V30H50.2209ZM59.1449 30.1207C58.7992 30.1207 58.4867 30.0568 58.2074 29.929C57.928 29.7988 57.7067 29.6106 57.5433 29.3643C57.3823 29.1181 57.3018 28.8163 57.3018 28.4588C57.3018 28.151 57.361 27.8977 57.4794 27.6989C57.5978 27.5 57.7576 27.3426 57.9588 27.2266C58.16 27.1106 58.3849 27.023 58.6335 26.9638C58.8821 26.9046 59.1354 26.8596 59.3935 26.8288C59.7202 26.791 59.9853 26.7602 60.1889 26.7365C60.3925 26.7105 60.5405 26.669 60.6328 26.6122C60.7251 26.5554 60.7713 26.4631 60.7713 26.3352V26.3104C60.7713 26.0002 60.6837 25.7599 60.5085 25.5895C60.3357 25.419 60.0777 25.3338 59.7344 25.3338C59.3769 25.3338 59.0952 25.4131 58.8892 25.5717C58.6856 25.728 58.5447 25.902 58.4666 26.0938L57.4688 25.8665C57.5871 25.535 57.7599 25.2675 57.9872 25.0639C58.2169 24.858 58.4808 24.7088 58.7791 24.6165C59.0774 24.5218 59.3911 24.4744 59.7202 24.4744C59.938 24.4744 60.1688 24.5005 60.4126 24.5526C60.6589 24.6023 60.8885 24.6946 61.1016 24.8295C61.317 24.9645 61.4934 25.1574 61.6307 25.4084C61.768 25.657 61.8366 25.9801 61.8366 26.3778V30H60.7997V29.2543H60.7571C60.6884 29.3916 60.5855 29.5265 60.4482 29.6591C60.3108 29.7917 60.1345 29.9018 59.919 29.9893C59.7036 30.0769 59.4455 30.1207 59.1449 30.1207ZM59.3757 29.2685C59.6693 29.2685 59.9202 29.2105 60.1286 29.0945C60.3393 28.9785 60.4991 28.8269 60.608 28.6399C60.7192 28.4505 60.7749 28.2481 60.7749 28.0327V27.3295C60.737 27.3674 60.6636 27.4029 60.5547 27.4361C60.4482 27.4669 60.3262 27.4941 60.1889 27.5178C60.0516 27.5391 59.9179 27.5592 59.7876 27.5781C59.6574 27.5947 59.5485 27.6089 59.4609 27.6207C59.255 27.6468 59.0668 27.6906 58.8963 27.7521C58.7282 27.8137 58.5933 27.9025 58.4915 28.0185C58.392 28.1321 58.3423 28.2836 58.3423 28.473C58.3423 28.7358 58.4394 28.9347 58.6335 29.0696C58.8277 29.2022 59.075 29.2685 59.3757 29.2685ZM64.3127 26.7614V30H63.2509V24.5455H64.2701V25.4332H64.3375C64.463 25.1444 64.6595 24.9124 64.927 24.7372C65.1969 24.562 65.5366 24.4744 65.9462 24.4744C66.3179 24.4744 66.6434 24.5526 66.9228 24.7088C67.2021 24.8627 67.4187 25.0923 67.5726 25.3977C67.7265 25.7031 67.8034 26.0807 67.8034 26.5305V30H66.7417V26.6584C66.7417 26.263 66.6387 25.9541 66.4327 25.7315C66.2267 25.5066 65.9438 25.3942 65.584 25.3942C65.3378 25.3942 65.1188 25.4474 64.927 25.554C64.7376 25.6605 64.5873 25.8168 64.476 26.0227C64.3671 26.2263 64.3127 26.4725 64.3127 26.7614ZM71.2694 30.1065C70.829 30.1065 70.436 29.9941 70.0904 29.7692C69.7471 29.5419 69.4772 29.2187 69.2807 28.7997C69.0866 28.3783 68.9895 27.8729 68.9895 27.2834C68.9895 26.6939 69.0878 26.1896 69.2843 25.7706C69.4831 25.3516 69.7554 25.0308 70.101 24.8082C70.4467 24.5857 70.8385 24.4744 71.2765 24.4744C71.615 24.4744 71.8873 24.5312 72.0932 24.6449C72.3016 24.7562 72.4625 24.8864 72.5762 25.0355C72.6922 25.1847 72.7821 25.3161 72.8461 25.4297H72.91V22.7273H73.9718V30H72.9348V29.1513H72.8461C72.7821 29.2673 72.6898 29.3999 72.5691 29.549C72.4507 29.6982 72.2873 29.8284 72.079 29.9396C71.8707 30.0509 71.6008 30.1065 71.2694 30.1065ZM71.5037 29.201C71.8091 29.201 72.0672 29.1205 72.2779 28.9595C72.4909 28.7962 72.6519 28.5701 72.7608 28.2812C72.8721 27.9924 72.9277 27.6562 72.9277 27.2727C72.9277 26.8939 72.8733 26.5625 72.7644 26.2784C72.6555 25.9943 72.4957 25.773 72.285 25.6143C72.0743 25.4557 71.8139 25.3764 71.5037 25.3764C71.1841 25.3764 70.9178 25.4593 70.7047 25.625C70.4917 25.7907 70.3307 26.0168 70.2218 26.3033C70.1152 26.5897 70.062 26.9129 70.062 27.2727C70.062 27.6373 70.1164 27.9652 70.2253 28.2564C70.3342 28.5476 70.4952 28.7784 70.7083 28.9489C70.9237 29.117 71.1889 29.201 71.5037 29.201Z" fill="#1C1B1F"/>
</svg>
